<?xml version="1.0" encoding="utf-8"?>
<!-- Generator: Adobe Illustrator 26.0.3, SVG Export Plug-In . SVG Version: 6.00 Build 0)  -->
<svg version="1.1" id="Layer_6" xmlns="http://www.w3.org/2000/svg" xmlns:xlink="http://www.w3.org/1999/xlink" x="0px" y="0px"
	 viewBox="0 0 1280 1280" style="enable-background:new 0 0 1280 1280;" xml:space="preserve">
<style type="text/css">
	.st0{fill:#867DFF;}
</style>
<g>
	<g>
		<path class="st0" d="M225.58,222.8c-29.95,11.68-60.1,78.85-44.45,113.1c28.4,62.15,5.79,150.71-29.31,204.79
			c-14.94,23.03-43.56,46.65-73.51,41.64c-35.46-5.93-43.27-47.2-39.16-76.64c4.27-30.57,15.65-59.7,34.49-84.89
			c7.55-10.09,22.76-31.53,37.82-28.94c-9.41,8.5-15.91,23.54-17.51,35.85c-1.17,9.01,1.1,25.05,14.67,15.3
			c27.33-19.61,28.37-69.84,26.49-100.25c-3.47-56.27,51.55-114.99,86.93-153.62c2.22-2.42,67.69-76.98,63.83-39.58
			c-4.43,42.92-33.6,103.95-62.52,135.59c-5.02,5.49-25.1,29.46-35.74,18.95c-7.93-7.84,1.27-26.01,5.4-32.78
			c2.85-4.67,15.52-29.45,24.18-27.14c7,1.86-2.48,22.78-3.64,25.25C218.55,264,240.81,216.85,225.58,222.8z"/>
		<path class="st0" d="M306.19,166.52c8.12,10.72-12.67,39.73-19.57,41.03c-12.21,2.31,29.95-77.64,34.45-83.2
			c17.96-22.16,54.15-60.69,87.83-49.53c18.35,6.94,33-5.56,45.49-17.69c-10.43,35.15-38.06,77.56-72.47,93.26
			c-33.17,98.78-70.18,196.44-97.04,297.22c-8.61,33.44-21.74,78.19-4.71,111.23c-23.54,11.19-48.18,19.19-72.91,15.29
			c-41.09-6.47,8.12-114.78,15.69-132.61c37.3-87.89,68.61-178.57,105.91-266.66c2.51-5.22,9.42-23.49,0.99-27.56
			C321.5,143.27,309.59,161.38,306.19,166.52z"/>
		<path class="st0" d="M515.8,44.8c7.18,10.14,0.55,32.67-2.61,46.09c-6.16,26.17-14.98,51.7-23.76,77.07
			c-30.25,87.36-50.79,181.16-64.53,271.7c-2.19,14.44-16.55,89.66,9.96,92.98c-6.1,13.54-27.07,18.6-39.4,23.09
			c-13.55,4.94-49.28,9.31-50.47-13.17c-2.15-57.76,17.69-119.64,32.47-174.72c17.3-64.46,38.16-128.02,58.26-191.43
			c4.18-13.2,38.55-98.69,18.27-109.66C464.97,54.7,504.99,29.54,515.8,44.8z"/>
		<path class="st0" d="M594.47,148.11c-4.98-15.48-17.21-4.42-22.67,2.94c-13.63,18.36-20.21,43.75-25.21,65.19
			c-4.4,18.87-25.58,150.27,27.57,134.66c32.4-9.51,53.59-56.24,65.6-84.74c1.85,48.58-8.68,99.16-19.83,145.46
			c-9.76,40.55-46.06,170.88-110.03,151.5c-37.01-11.21-41.67-75.88-43.87-107.06c-4.57-64.64,3.6-130.41,16.84-193.15
			c6.13-29.03,66.6-281.19,133.99-232.85c21.2,15.21,26.24,49.79,28.26,74.12c3.01,36.17-1.14,76.06-17.58,107.55
			c-6.46,12.37-19.88,37.56-38.47,27.65c-12.89-6.88-16.94-28.03-16.68-41.17C594.2,217.25,597.85,158.6,594.47,148.11z"/>
		<path class="st0" d="M742.76,74.94c-0.91,64.98-16.62,129.14-19.57,194.08c24.08-49.48,41.63-106.52,45.49-161.49
			c1.4-21.29-3.98-45.07-16.43-62.67c15.7-1.89,36.14,0.97,46.45,14.26c18.75,24.17,16.03,63.04,8.48,90.69
			c-11.67,42.71-33.05,83.11-47.92,124.57c-9.16,25.55-16.72,54.88-9.37,81.79c3.56,13.03,27.36,54.06,33.64,18.03
			c3.33-19.14,7.84-50.88-10.87-64.93c4.38-35.35,34.9,16.91,38.18,24.95c20.28,58.87,23.16,131.51,6.83,189.9
			c-4.16,14.88-12.83,48.35-33.73,49.82c-18.47,1.3-27.4-25.37-30.98-38.76c-15.85-59.42-15.54-124.14-38.02-182.02
			c-0.75,45.97-1.3,93-5.52,137.87c-2.33,24.8-9.19,69.66-32.02,80.67c-20.74,10-62.91,3.63-86.66-4.97
			c20.39-23.58,29.05-60.07,37.16-89.19c19.72-70.78,30.28-144.18,37.47-216.99c5.63-57.01,11.8-115.09,10.77-172.62
			c-0.27-15.27,0.26-33.92-8.27-47.41C697.06,30.2,743.31,35.31,742.76,74.94z"/>
		<path class="st0" d="M911.6,163.79c-15.92-5.26-13.46,27.39-12.39,35.54c4.63,35.28,22.14,68.07,42.63,96
			c46.68,63.59,84.12,158.93,42.09,234.4c-15.06,27.04-46.55,46.88-78.09,38.85c-45.75-11.65-60.97-67.86-66.64-107.32
			c-4.9-34.12-7.35-74.65,7.25-107.77c5.84-13.24,19.45-32.63,35.95-21.44c-14.3,13.79-4.14,80.56,22.69,68.96
			c39.81-17.22-11.57-106.45-22.8-126.86c-27.45-49.87-53.18-136.01-30.14-189.39c19.79-45.86,56.73,1.98,75.16,27.14
			c24.26,33.13,59.01,102.03,36.09,143.29c-20.48,36.85-53.55-26.37-54.44-44.78c-0.47-9.71,0.02-23.6,11.66-19.74
			c10.06,3.34,15.87,27.07,17.37,35.1C947.83,208.37,928.3,169.3,911.6,163.79z"/>
		<path class="st0" d="M1256.43,547.72c-13.78,22.26-41.43-30.63-45.36-37.06c-4.31,15.63-13.31,30.28-25.79,40.64
			c-66.37,53.03-85.81-98.23-88.96-130.64c-3.23-33.23-3.42-69.63,12.84-100.43c-21.38-41.75-42.17-84.01-58.5-128.04
			c-3.54-9.27-18.39-38.67-0.49-31.03c8.36,3.57,17,15.96,23.08,22.34c15.84,16.63,31.19,34.11,44.79,52.17
			c18.81,25,59.54,77.79,25.45,108.02c14.98,26.34,30.91,52.35,49.18,76.56c5.31-12.21,4.13-26.1-1.23-38.09
			c0,0,2.84,13.8-5.21,7.12c-9.62-7.98-22.07-37.64-17.01-45.03c7.71-11.28,38.41,55.65,40.37,62.81
			c3.11,13.34,5.47,26.87,6.76,40.52c13.62,15.66,28.99,9.93,20.26-11.6C1258.47,457.1,1270.37,520.86,1256.43,547.72z
			 M1173.59,441.38c-3.58-6.63-7.45-14.2-11.6-21.83c-8.48-16.2-17.21-32.27-25.82-48.4c-0.43,21.19,1.56,45.21,12.04,64.1
			C1152.54,444.17,1165.64,446.52,1173.59,441.38z M1120.73,300.86c1.37-2.68,2.27-5.08,2.41-7.42
			c-1.74-20.37-29.79-65.72-33.87-64.72C1085.53,229.65,1114.8,289.11,1120.73,300.86z"/>
		<path class="st0" d="M147.23,743.9c-20.89-2.86-22.64,34.37-21.63,47.85c3.06,40.95,26.06,78.35,50.58,109.46
			c28.47,36.12,52.64,77.3,71.21,119.74c14.62,33.41,29.98,75.32,28.11,111.53c-1.3,25.13-34.33-3.19-40.36-8.42
			c-36.7-31.83-71.46-69.15-100.46-107.07c-15.14-19.8-41.42-51.22-38.76-78.97c1.48-15.44,14.07-18.57,25.88-9.04
			c-10.99,17.54,24.91,68.24,40.73,67.04c22.44-1.7-45.69-112.09-52.61-122.41c-41.64-62.13-65.15-153.05-24.38-219.55
			c12.2-19.89,31.66-49.06,59.49-45.51c23.98,3.06,38.23,29.45,48.11,48.21c16.51,31.33,21.22,70.58,22.62,106.03
			c1.14,28.85,1.57,65.79-14.1,91.1c-26.2,42.32-65.24-23.39-64.79-49.72c0.18-10.36,2.46-32.01,17.2-26.57
			c12.54,4.63,16.85,32.06,17.96,42.26C184.81,800.83,171.06,747.16,147.23,743.9z"/>
		<path class="st0" d="M252.3,713.14c13.99,10.24,12.62,58.48-3.66,58.63c-11.99,0.11-17.38-33.64-18.53-45.59
			c-2.72-28.08,0.75-58.97,14.45-83.71c26.99-48.71,95.34-50.45,138.7-22.41c27.04,17.44,51.3,17.62,74.92-5.08
			c-2.04,45.09-31.75,113.44-82.17,121.54c-5.04,120.45-18.22,241.64-7.48,362.16c3.41,39.3,11.97,80.36,35.34,113.01
			c-22.51,2.19-42.28-5.65-60.01-17.34c-38.63-25.48-45.95-86.6-47.13-130.2c-2.88-106.34-3.57-211.9,2.9-318.6
			c0.93-15.6-2.35-40.02-17.43-49.24C267.95,687.6,256.57,699.12,252.3,713.14z"/>
		<path class="st0" d="M555.44,1250.77c-69.78,75.76-116.9-149.38-121.59-181.16c-12.5-84.71-10.23-172.85,6.14-257.31
			c12.69-65.51,34.46-141.7,80.33-191.62c20.59-22.41,47.97-24.36,65,2.3c17.11,26.77,19.31,64.79,11.81,94.92
			c26.65,109.31,29.19,223.58,15.41,334.97c-5.22,42.16-12.59,84.36-24.34,125.24C581.15,1202.63,573,1231.71,555.44,1250.77z
			 M558.32,708.57c-9.54-11.34-23.53,13.16-27.27,19.7c-16.33,28.6-24.4,62.38-28.81,93.98c-3.88,27.76-6.58,61.74,5.18,88.86
			c4.48,10.32,16.37,25.35,25.49,9.28C570.7,862.26,566.33,774.44,558.32,708.57z"/>
		<path class="st0" d="M805.64,1034.11c-2.37,10.04-7.03,35.9,9.92,34.64c18.26-1.36,29.41-40.27,32.72-53.09
			c1.22,31.87-8.47,65.95-16.86,96.37c-11.26,40.83-25.77,82.46-47.86,118.68c-6.52,10.7-27.38,48.33-45.05,38.09
			c-22.37-12.97-7.81-78.46-5.41-96.22c14.58-107.66,37.44-217.16,63.65-322.33c2.85-11.43,20.09-62.7,6.78-73.21
			c-11.9-9.4-25.63,20.43-29.74,28.11c-43.25,83.48-56.86,172.14-75.29,262.86c-8.04,39.6-14.99,79.67-17.83,120.08
			c-1.35,19.18-3.94,41.91,2.65,60.51c-14.25,24.46-52.43,30.37-68.98,20.72c-8.74-5.09-5.65-35.57-5.3-47.5
			c1.12-37.95,5.21-75.86,9.53-113.56c10.78-93.95,27.08-187.58,35.97-281.45c4.64-48.99,9.45-99.35,6.03-148.75
			c-0.91-13.15-1-31.75-10.5-42.21c28.74-19.1,71.79-15.15,102.42-26.66c34.09-12.81,10.92,73.88,8.36,81.75
			c-10.06,31.12-14.56,64.46-21.08,96.46c9.08-26.99,22.55-53.03,35.48-78.31c13.04-25.49,27.9-62.19,52.23-78.31
			c58.97-39.08,47.99,72.26,44.54,101.18C859.86,833.7,829.28,933.87,805.64,1034.11z"/>
		<path class="st0" d="M1022.13,778.68c-5.21-13.95-16.17-20.61-29.23-12.8c-16.45,9.84-21.58,36.44-23.73,52.79
			c-3.2,24.31-8.63,82.17,17.51,99.46c-22,14.99-37.71,50.13-47.14,73.98c-3.73,9.63-15.7,42.32,2.14,45.75
			c22.2,4.28,49.26-46.46,57.74-59.62c8.71-12.8,22.01-34.83,40.13-35.68c13.37-0.62,20.63,12.76,20.65,24.86
			c-22.27,2.39-35.64,45.44-43.48,61.84c-19.85,41.54-39.87,83.31-65.27,121.44c-17.2,25.83-45.38,74.44-79.65,81.78
			c-29.67,6.35-32.17-37.92-32.39-57.34c-0.62-56.23,10-114.2,29.31-167.36c9.65-26.58,27.68-82.56,59.79-91.03
			c-17.49-52.99-12.39-114.92-1.26-167.69c10.17-48.22,40.49-152.02,110.43-114.98c28.66,15.18,38.79,54.76,42.19,84.49
			c4.43,38.78-0.83,80.1-15.98,115.51c-7.44,17.39-23.46,57.26-48.59,56.23c-17.58-0.72-22.87-22.85-23.41-36.86
			C1022.2,855.81,1029.19,797.55,1022.13,778.68z"/>
		<path class="st0" d="M1206.88,738.53c-20.36,1.07-30.01,36.16-33.69,52.3c-6.94,30.48-7.55,65.85,5.94,94.67
			c34,72.63-44.4,152.15-88.18,199.6c-21.68,23.49-50.17,60.9-80.92,73.27c-33.51,13.48-12.75-48.58-9.3-60.85
			c10.61-37.78,25.34-76.11,47.76-108.85c8.72-12.74,27.7-41.07,46.87-36.56c-11.68,10.95-18.81,29.73-21.73,45.17
			c-2.12,11.21-0.47,28.12,14.74,15.45c33.8-28.17,41.67-82.93,31.24-124.59c-9.04-36.15-6.05-76.48-1.2-113.25
			c5.44-41.23,14.75-85.36,36.36-120.48c11.69-19,30.4-49.22,57.83-43.88c21.56,4.2,36.53,26.88,45.67,44.88
			c27.01,53.21,7.19,131.9-31.22,172.77c-8.72,9.28-28.64,31.39-43.35,17.99c-11.07-10.09-7.6-33.77-2.9-45.77
			c3.11-7.93,11.67-35.65,25.18-31c11.3,3.88,6.66,29.13,4.82,36.17C1222.12,793.58,1234.99,737.05,1206.88,738.53z"/>
	</g>
</g>
</svg>
