<?xml version="1.0" encoding="utf-8"?>
<!-- Generator: Adobe Illustrator 26.0.3, SVG Export Plug-In . SVG Version: 6.00 Build 0)  -->
<svg version="1.1" id="Layer_1" xmlns="http://www.w3.org/2000/svg" xmlns:xlink="http://www.w3.org/1999/xlink" x="0px" y="0px"
	 viewBox="0 0 1000 1000" style="enable-background:new 0 0 1000 1000;" xml:space="preserve">
<style type="text/css">
	.st0{fill:#867DFF;}
</style>
<g>
	<g>
		<path class="st0" d="M256.71,233.14c-35.46,5.23-55.71,56.99-62.51,86.68c-14.5,63.26,8.06,124.96,45.12,175.28
			c43.83,59.51,75.99,131.91,92.32,204.42c15.28,67.82,20.02,148.07-13.87,211.41c-23.17,43.32-65.66,26.93-96.99,2.91
			c-59.69-45.77-116.7-107.74-155.97-170.11c-24.09-38.27-48.12-89.96-27.72-135.97c10.84-24.44,38.42-46.75,65.5-31.24
			c-35.16,23.16,2.33,124.69,46.46,113.83c29.45-7.25,23.56-49.58,19.48-71.3c-9.5-50.54-31.77-99.33-54.36-144.93
			c-58.31-117.72,9-244.94,86.49-334.54c26.12-30.2,62.6-81.93,104.73-91.69c28.53-6.61,45.63,20.59,56.06,42.88
			c20.75,44.31,18.2,100.88,12.27,148.26c-6.83,54.58-21.97,116.61-58.42,157.36c-21.84,24.42-57.15,48.07-87.75,21.2
			c-22.14-19.44-27.82-55.51-18.17-82.07c5.27-14.5,21.34-60.43,45.29-51.98c20.95,7.39,17.99,47.81,15.81,63.96
			C292.9,327.64,304.81,226.04,256.71,233.14z"/>
		<path class="st0" d="M630.74,914.09c-36.19,47.54-69.49-25.22-83.64-53.34c-18.42,32.63-39.99,63.72-70.94,85.66
			c-40.96,28.33-81.26,16.72-111.31-20.58c-49.7-61.68-62.8-149.3-61.64-224.72c1.44-92.67,41.46-177.31,101.77-248.3
			c-21.27-104.73-24.36-209.21,8.14-311.99C427.78,96.07,462.86,3.69,521.68,0.74c62.55-3.13,82.88,103.88,89.39,146.27
			c20.15,131.24-17.15,253.69-122.26,339.69c16.73,59.75,39.07,119.14,72.32,171.82c23.06-29.67,40.54-67.6,38.74-105.88
			c-1.96,11.03-10.19,35.94-25.85,26.11c-31.52-19.79-15.62-95.88,3.13-119.25c15.09-18.82,34.3-8.82,43.97,9.18
			c21.75,40.48,13.22,96.24,6.26,138.98c-6.5,34.96-13.9,69.65-22.77,104.09c42.06,35.89,67.15-9.06,71.95-48.3
			c10.42,7.04,9.45,27.74,9.81,38.65c0.78,23.73-1.68,47.73-5.44,71.14C673.32,820.65,660.89,875.36,630.74,914.09z M489.88,722.81
			c-5.91-15.41-11.53-30.92-17.3-46.37c-12.49-35.39-24.91-70.78-36.15-106.59c-15.36,44.37-32.22,104.16-10.63,149.5
			C438.44,745.27,471.01,732.13,489.88,722.81z M469.86,382.79c7.56-8.34,15.03-17,20.86-26.67
			c10.02-19.41,38.33-174.68-2.41-165.24c-15.45,3.58-18.81,34.34-20.69,47.76C460.94,286.16,465.1,335.32,469.86,382.79z"/>
		<path class="st0" d="M855.27,258.34c-33.02-11.71-31.98,46.91-30.6,64.24c4.99,62.8,32.35,123.7,69.48,172.99
			c34.33,45.57,59.26,103.9,52.31,162.32c-8.88,74.64-63.87,136.84-111.95,190.26c-35.17,39.08-84.68,98.75-139.1,110.61
			c-66.18,14.43-72.29-87.95-72.84-129.16c-0.87-64.99,8.96-135.22,43.46-192.54c15.57-25.87,49.78-68.17,85.14-51.32
			c-31.63,22.75-36.16,148.4,21.24,117.49c81.7-43.99,26.43-174.38-3.31-231.52c-31.59-60.68-47.79-131.18-54.18-199.2
			c-4.78-50.79-7.22-113.76,14.18-160.8c13.03-28.64,32.37-34.31,57.63-16.31c34,24.24,62.75,58.23,90.87,88.62
			c48,51.87,135.31,159.13,75.4,232.23c-49.64,60.55-113.35-19.58-108.38-73.71c1.4-15.32,4.84-49.37,28.18-36.93
			c19.63,10.46,30.29,41.78,32.5,62.03c12.58-12.35,3.95-39.55-1.23-53.41C895.51,291.35,879.24,266.84,855.27,258.34z"/>
	</g>
</g>
</svg>
